<svg width="41" height="41" viewBox="0 0 41 41" fill="none" xmlns="http://www.w3.org/2000/svg">
<circle cx="20.5" cy="20.5" r="20" fill="white" stroke="#FF4757"/>
<path d="M4.47787 23.072C4.08321 23.072 3.78188 22.96 3.57388 22.736C3.36588 22.5067 3.26188 22.1627 3.26188 21.704V19.488H2.47788V18.984H3.26188V17.888L3.90988 17.704V18.984H5.06188V19.488H3.90988V21.632C3.90988 21.952 3.96321 22.1813 4.06988 22.32C4.18188 22.4533 4.34721 22.52 4.56588 22.52C4.66721 22.52 4.75788 22.512 4.83788 22.496C4.91788 22.4747 4.98988 22.4507 5.05388 22.424V22.968C4.97921 23 4.88854 23.024 4.78188 23.04C4.68054 23.0613 4.57921 23.072 4.47787 23.072ZM7.45969 23.072C7.07569 23.072 6.73969 22.9893 6.45169 22.824C6.16902 22.6533 5.95035 22.4133 5.79569 22.104C5.64102 21.7893 5.56369 21.4187 5.56369 20.992C5.56369 20.56 5.64102 20.1893 5.79569 19.88C5.95035 19.5707 6.16902 19.3333 6.45169 19.168C6.73969 18.9973 7.07569 18.912 7.45969 18.912C7.84902 18.912 8.18502 18.9973 8.46769 19.168C8.75569 19.3333 8.97702 19.5707 9.13169 19.88C9.29169 20.1893 9.37169 20.56 9.37169 20.992C9.37169 21.4187 9.29169 21.7893 9.13169 22.104C8.97702 22.4133 8.75569 22.6533 8.46769 22.824C8.18502 22.9893 7.84902 23.072 7.45969 23.072ZM7.45969 22.544C7.84369 22.544 8.14769 22.4133 8.37169 22.152C8.59569 21.8853 8.70769 21.4987 8.70769 20.992C8.70769 20.48 8.59302 20.0933 8.36369 19.832C8.13969 19.5653 7.83835 19.432 7.45969 19.432C7.08102 19.432 6.77969 19.5653 6.55569 19.832C6.33169 20.0933 6.21969 20.48 6.21969 20.992C6.21969 21.4987 6.33169 21.8853 6.55569 22.152C6.77969 22.4133 7.08102 22.544 7.45969 22.544ZM10.382 23V19.912C10.382 19.7627 10.374 19.6107 10.358 19.456C10.3473 19.296 10.334 19.1387 10.318 18.984H10.942L11.022 19.864H10.926C11.0327 19.56 11.2007 19.3253 11.43 19.16C11.6647 18.9947 11.9473 18.912 12.278 18.912C12.614 18.912 12.886 18.992 13.094 19.152C13.3073 19.312 13.4513 19.56 13.526 19.896H13.406C13.5073 19.592 13.686 19.352 13.942 19.176C14.198 19 14.4967 18.912 14.838 18.912C15.2807 18.912 15.614 19.04 15.838 19.296C16.062 19.5467 16.174 19.944 16.174 20.488V23H15.526V20.528C15.526 20.1493 15.4593 19.8747 15.326 19.704C15.1927 19.528 14.9793 19.44 14.686 19.44C14.35 19.44 14.0833 19.5573 13.886 19.792C13.694 20.0213 13.598 20.3307 13.598 20.72V23H12.95V20.528C12.95 20.1493 12.8833 19.8747 12.75 19.704C12.6167 19.528 12.4033 19.44 12.11 19.44C11.774 19.44 11.51 19.5573 11.318 19.792C11.126 20.0213 11.03 20.3307 11.03 20.72V23H10.382ZM19.0534 23.072C18.6694 23.072 18.3334 22.9893 18.0454 22.824C17.7628 22.6533 17.5441 22.4133 17.3894 22.104C17.2348 21.7893 17.1574 21.4187 17.1574 20.992C17.1574 20.56 17.2348 20.1893 17.3894 19.88C17.5441 19.5707 17.7628 19.3333 18.0454 19.168C18.3334 18.9973 18.6694 18.912 19.0534 18.912C19.4428 18.912 19.7788 18.9973 20.0614 19.168C20.3494 19.3333 20.5708 19.5707 20.7254 19.88C20.8854 20.1893 20.9654 20.56 20.9654 20.992C20.9654 21.4187 20.8854 21.7893 20.7254 22.104C20.5708 22.4133 20.3494 22.6533 20.0614 22.824C19.7788 22.9893 19.4428 23.072 19.0534 23.072ZM19.0534 22.544C19.4374 22.544 19.7414 22.4133 19.9654 22.152C20.1894 21.8853 20.3014 21.4987 20.3014 20.992C20.3014 20.48 20.1868 20.0933 19.9574 19.832C19.7334 19.5653 19.4321 19.432 19.0534 19.432C18.6748 19.432 18.3734 19.5653 18.1494 19.832C17.9254 20.0933 17.8134 20.48 17.8134 20.992C17.8134 21.4987 17.9254 21.8853 18.1494 22.152C18.3734 22.4133 18.6748 22.544 19.0534 22.544ZM21.9598 23V19.952C21.9598 19.792 21.9544 19.6293 21.9438 19.464C21.9384 19.2987 21.9278 19.1387 21.9118 18.984H22.5358L22.6158 19.96L22.5038 19.968C22.5571 19.728 22.6504 19.5307 22.7838 19.376C22.9171 19.2213 23.0744 19.1067 23.2558 19.032C23.4371 18.952 23.6264 18.912 23.8238 18.912C23.9038 18.912 23.9731 18.9147 24.0318 18.92C24.0958 18.9253 24.1544 18.9387 24.2078 18.96L24.1998 19.536C24.1198 19.5093 24.0451 19.4933 23.9758 19.488C23.9118 19.4773 23.8371 19.472 23.7518 19.472C23.5171 19.472 23.3118 19.528 23.1358 19.64C22.9651 19.752 22.8344 19.896 22.7438 20.072C22.6584 20.248 22.6158 20.4347 22.6158 20.632V23H21.9598ZM24.866 23V19.952C24.866 19.792 24.8607 19.6293 24.85 19.464C24.8447 19.2987 24.834 19.1387 24.818 18.984H25.442L25.522 19.96L25.41 19.968C25.4633 19.728 25.5567 19.5307 25.69 19.376C25.8233 19.2213 25.9807 19.1067 26.162 19.032C26.3433 18.952 26.5327 18.912 26.73 18.912C26.81 18.912 26.8793 18.9147 26.938 18.92C27.002 18.9253 27.0607 18.9387 27.114 18.96L27.106 19.536C27.026 19.5093 26.9513 19.4933 26.882 19.488C26.818 19.4773 26.7433 19.472 26.658 19.472C26.4233 19.472 26.218 19.528 26.042 19.64C25.8713 19.752 25.7407 19.896 25.65 20.072C25.5647 20.248 25.522 20.4347 25.522 20.632V23H24.866ZM29.3894 23.072C29.0054 23.072 28.6694 22.9893 28.3814 22.824C28.0987 22.6533 27.88 22.4133 27.7254 22.104C27.5707 21.7893 27.4934 21.4187 27.4934 20.992C27.4934 20.56 27.5707 20.1893 27.7254 19.88C27.88 19.5707 28.0987 19.3333 28.3814 19.168C28.6694 18.9973 29.0054 18.912 29.3894 18.912C29.7787 18.912 30.1147 18.9973 30.3974 19.168C30.6854 19.3333 30.9067 19.5707 31.0614 19.88C31.2214 20.1893 31.3014 20.56 31.3014 20.992C31.3014 21.4187 31.2214 21.7893 31.0614 22.104C30.9067 22.4133 30.6854 22.6533 30.3974 22.824C30.1147 22.9893 29.7787 23.072 29.3894 23.072ZM29.3894 22.544C29.7734 22.544 30.0774 22.4133 30.3014 22.152C30.5254 21.8853 30.6374 21.4987 30.6374 20.992C30.6374 20.48 30.5227 20.0933 30.2934 19.832C30.0694 19.5653 29.768 19.432 29.3894 19.432C29.0107 19.432 28.7094 19.5653 28.4854 19.832C28.2614 20.0933 28.1494 20.48 28.1494 20.992C28.1494 21.4987 28.2614 21.8853 28.4854 22.152C28.7094 22.4133 29.0107 22.544 29.3894 22.544ZM33.329 23L31.841 18.984H32.529L33.769 22.52H33.561L34.841 18.984H35.401L36.657 22.52H36.457L37.705 18.984H38.361L36.865 23H36.241L34.945 19.408H35.265L33.961 23H33.329Z" fill="black"/>
</svg>
