<svg width="41" height="41" viewBox="0 0 41 41" fill="none" xmlns="http://www.w3.org/2000/svg">
<circle cx="20.5" cy="20.5" r="20" fill="white" stroke="#FF4757"/>
<path d="M2.847 24.816L2.695 24.28C2.94567 24.2213 3.15367 24.152 3.319 24.072C3.48967 23.9973 3.631 23.896 3.743 23.768C3.855 23.64 3.951 23.48 4.031 23.288L4.239 22.816L4.223 23.088L2.471 18.984H3.175L4.623 22.512H4.415L5.847 18.984H6.527L4.671 23.336C4.56433 23.592 4.447 23.8053 4.319 23.976C4.191 24.152 4.05233 24.2933 3.903 24.4C3.759 24.512 3.599 24.6 3.423 24.664C3.247 24.728 3.055 24.7787 2.847 24.816ZM8.98631 23.072C8.35698 23.072 7.86098 22.8907 7.49831 22.528C7.13565 22.16 6.95431 21.6507 6.95431 21C6.95431 20.5787 7.03431 20.2133 7.19431 19.904C7.35431 19.5893 7.57831 19.3467 7.86631 19.176C8.15431 19 8.48498 18.912 8.85831 18.912C9.22631 18.912 9.53565 18.9893 9.78631 19.144C10.037 19.2987 10.229 19.52 10.3623 19.808C10.4956 20.0907 10.5623 20.4267 10.5623 20.816V21.056H7.45031V20.648H10.1383L10.0023 20.752C10.0023 20.3253 9.90631 19.992 9.71431 19.752C9.52231 19.512 9.23698 19.392 8.85831 19.392C8.45831 19.392 8.14631 19.5333 7.92231 19.816C7.69831 20.0933 7.58631 20.4693 7.58631 20.944V21.016C7.58631 21.5173 7.70898 21.8987 7.95431 22.16C8.20498 22.416 8.55431 22.544 9.00231 22.544C9.24231 22.544 9.46631 22.5093 9.67431 22.44C9.88765 22.3653 10.0903 22.2453 10.2823 22.08L10.5063 22.536C10.3303 22.7067 10.1063 22.84 9.83431 22.936C9.56765 23.0267 9.28498 23.072 8.98631 23.072ZM12.8899 23.072C12.5699 23.072 12.2712 23.0293 11.9939 22.944C11.7165 22.8533 11.4872 22.728 11.3059 22.568L11.5299 22.112C11.7272 22.2667 11.9405 22.3813 12.1699 22.456C12.4045 22.5307 12.6472 22.568 12.8979 22.568C13.2179 22.568 13.4579 22.512 13.6179 22.4C13.7832 22.2827 13.8659 22.1227 13.8659 21.92C13.8659 21.7653 13.8125 21.6427 13.7059 21.552C13.6045 21.456 13.4365 21.3813 13.2019 21.328L12.4579 21.176C12.1165 21.1013 11.8605 20.976 11.6899 20.8C11.5192 20.6187 11.4339 20.3893 11.4339 20.112C11.4339 19.8773 11.4952 19.672 11.6179 19.496C11.7405 19.3147 11.9192 19.1733 12.1539 19.072C12.3885 18.9653 12.6632 18.912 12.9779 18.912C13.2712 18.912 13.5405 18.9573 13.7859 19.048C14.0365 19.1333 14.2445 19.2587 14.4099 19.424L14.1779 19.872C14.0179 19.7173 13.8339 19.6027 13.6259 19.528C13.4232 19.448 13.2125 19.408 12.9939 19.408C12.6792 19.408 12.4419 19.472 12.2819 19.6C12.1272 19.7227 12.0499 19.8853 12.0499 20.088C12.0499 20.2427 12.0979 20.3707 12.1939 20.472C12.2952 20.568 12.4499 20.64 12.6579 20.688L13.4019 20.84C13.7645 20.92 14.0339 21.0453 14.2099 21.216C14.3912 21.3813 14.4819 21.6053 14.4819 21.888C14.4819 22.128 14.4152 22.3387 14.2819 22.52C14.1485 22.696 13.9619 22.832 13.7219 22.928C13.4872 23.024 13.2099 23.072 12.8899 23.072ZM16.9076 23.072C16.5129 23.072 16.2116 22.96 16.0036 22.736C15.7956 22.5067 15.6916 22.1627 15.6916 21.704V19.488H14.9076V18.984H15.6916V17.888L16.3396 17.704V18.984H17.4916V19.488H16.3396V21.632C16.3396 21.952 16.3929 22.1813 16.4996 22.32C16.6116 22.4533 16.7769 22.52 16.9956 22.52C17.0969 22.52 17.1876 22.512 17.2676 22.496C17.3476 22.4747 17.4196 22.4507 17.4836 22.424V22.968C17.4089 23 17.3182 23.024 17.2116 23.04C17.1102 23.0613 17.0089 23.072 16.9076 23.072ZM20.0254 23.072C19.396 23.072 18.9 22.8907 18.5374 22.528C18.1747 22.16 17.9934 21.6507 17.9934 21C17.9934 20.5787 18.0734 20.2133 18.2334 19.904C18.3934 19.5893 18.6174 19.3467 18.9054 19.176C19.1934 19 19.524 18.912 19.8974 18.912C20.2654 18.912 20.5747 18.9893 20.8254 19.144C21.076 19.2987 21.268 19.52 21.4014 19.808C21.5347 20.0907 21.6014 20.4267 21.6014 20.816V21.056H18.4894V20.648H21.1774L21.0414 20.752C21.0414 20.3253 20.9454 19.992 20.7534 19.752C20.5614 19.512 20.276 19.392 19.8974 19.392C19.4974 19.392 19.1854 19.5333 18.9614 19.816C18.7374 20.0933 18.6254 20.4693 18.6254 20.944V21.016C18.6254 21.5173 18.748 21.8987 18.9934 22.16C19.244 22.416 19.5934 22.544 20.0414 22.544C20.2814 22.544 20.5054 22.5093 20.7134 22.44C20.9267 22.3653 21.1294 22.2453 21.3214 22.08L21.5454 22.536C21.3694 22.7067 21.1454 22.84 20.8734 22.936C20.6067 23.0267 20.324 23.072 20.0254 23.072ZM22.5769 23V19.952C22.5769 19.792 22.5716 19.6293 22.5609 19.464C22.5556 19.2987 22.5449 19.1387 22.5289 18.984H23.1529L23.2329 19.96L23.1209 19.968C23.1743 19.728 23.2676 19.5307 23.4009 19.376C23.5343 19.2213 23.6916 19.1067 23.8729 19.032C24.0543 18.952 24.2436 18.912 24.4409 18.912C24.5209 18.912 24.5903 18.9147 24.6489 18.92C24.7129 18.9253 24.7716 18.9387 24.8249 18.96L24.8169 19.536C24.7369 19.5093 24.6623 19.4933 24.5929 19.488C24.5289 19.4773 24.4543 19.472 24.3689 19.472C24.1343 19.472 23.9289 19.528 23.7529 19.64C23.5823 19.752 23.4516 19.896 23.3609 20.072C23.2756 20.248 23.2329 20.4347 23.2329 20.632V23H22.5769ZM26.9723 23.072C26.6203 23.072 26.311 22.9893 26.0443 22.824C25.7776 22.6533 25.5696 22.4133 25.4203 22.104C25.2763 21.7947 25.2043 21.424 25.2043 20.992C25.2043 20.5547 25.2763 20.1813 25.4203 19.872C25.5696 19.5627 25.7776 19.3253 26.0443 19.16C26.311 18.9947 26.6203 18.912 26.9723 18.912C27.335 18.912 27.647 19.0027 27.9083 19.184C28.175 19.3653 28.3536 19.6107 28.4443 19.92H28.3483V17.112H28.9963V23H28.3563V22.04H28.4443C28.359 22.36 28.183 22.6133 27.9163 22.8C27.6496 22.9813 27.335 23.072 26.9723 23.072ZM27.1083 22.544C27.487 22.544 27.791 22.4133 28.0203 22.152C28.2496 21.8853 28.3643 21.4987 28.3643 20.992C28.3643 20.48 28.2496 20.0933 28.0203 19.832C27.791 19.5653 27.487 19.432 27.1083 19.432C26.7296 19.432 26.4256 19.5653 26.1963 19.832C25.9723 20.0933 25.8603 20.48 25.8603 20.992C25.8603 21.4987 25.9723 21.8853 26.1963 22.152C26.4256 22.4133 26.7296 22.544 27.1083 22.544ZM31.7772 23.072C31.4199 23.072 31.1079 22.9893 30.8412 22.824C30.5745 22.6533 30.3665 22.4133 30.2172 22.104C30.0732 21.7947 30.0012 21.424 30.0012 20.992C30.0012 20.5547 30.0732 20.1813 30.2172 19.872C30.3665 19.5627 30.5745 19.3253 30.8412 19.16C31.1079 18.9947 31.4199 18.912 31.7772 18.912C32.1399 18.912 32.4519 19.0053 32.7132 19.192C32.9799 19.3733 33.1559 19.6213 33.2412 19.936H33.1452L33.2332 18.984H33.8572C33.8412 19.1387 33.8252 19.296 33.8092 19.456C33.7985 19.6107 33.7932 19.7627 33.7932 19.912V23H33.1452V22.056H33.2332C33.1479 22.3707 32.9719 22.6187 32.7052 22.8C32.4385 22.9813 32.1292 23.072 31.7772 23.072ZM31.9052 22.544C32.2892 22.544 32.5932 22.4133 32.8172 22.152C33.0412 21.8853 33.1532 21.4987 33.1532 20.992C33.1532 20.48 33.0412 20.0933 32.8172 19.832C32.5932 19.5653 32.2892 19.432 31.9052 19.432C31.5265 19.432 31.2225 19.5653 30.9932 19.832C30.7692 20.0933 30.6572 20.48 30.6572 20.992C30.6572 21.4987 30.7692 21.8853 30.9932 22.152C31.2225 22.4133 31.5265 22.544 31.9052 22.544ZM34.847 24.816L34.695 24.28C34.9457 24.2213 35.1537 24.152 35.319 24.072C35.4897 23.9973 35.631 23.896 35.743 23.768C35.855 23.64 35.951 23.48 36.031 23.288L36.239 22.816L36.223 23.088L34.471 18.984H35.175L36.623 22.512H36.415L37.847 18.984H38.527L36.671 23.336C36.5643 23.592 36.447 23.8053 36.319 23.976C36.191 24.152 36.0523 24.2933 35.903 24.4C35.759 24.512 35.599 24.6 35.423 24.664C35.247 24.728 35.055 24.7787 34.847 24.816Z" fill="black"/>
</svg>
